<mxfile host="app.diagrams.net" modified="2022-06-22T02:52:41.868Z" agent="5.0 (Windows NT 10.0; Win64; x64) AppleWebKit/537.36 (KHTML, like Gecko) Chrome/102.0.0.0 Safari/537.36" etag="Qvd-DIaGHfgDtz-JXmgg" version="20.0.2" type="github">
  <diagram name="Page-1" id="c4acf3e9-155e-7222-9cf6-157b1a14988f">
    <mxGraphModel dx="981" dy="526" grid="1" gridSize="10" guides="1" tooltips="1" connect="1" arrows="1" fold="1" page="1" pageScale="1" pageWidth="850" pageHeight="1100" background="none" math="0" shadow="0">
      <root>
        <mxCell id="0" />
        <mxCell id="1" parent="0" />
        <mxCell id="P6olf1xMX7x4DSoyxQ6s-1" value="Vendedor" style="swimlane;fontStyle=0;childLayout=stackLayout;horizontal=1;startSize=26;fillColor=none;horizontalStack=0;resizeParent=1;resizeParentMax=0;resizeLast=0;collapsible=1;marginBottom=0;" vertex="1" parent="1">
          <mxGeometry x="40" y="40" width="160" height="130" as="geometry" />
        </mxCell>
        <mxCell id="P6olf1xMX7x4DSoyxQ6s-2" value="+ Nombre: String" style="text;strokeColor=none;fillColor=none;align=left;verticalAlign=top;spacingLeft=4;spacingRight=4;overflow=hidden;rotatable=0;points=[[0,0.5],[1,0.5]];portConstraint=eastwest;" vertex="1" parent="P6olf1xMX7x4DSoyxQ6s-1">
          <mxGeometry y="26" width="160" height="26" as="geometry" />
        </mxCell>
        <mxCell id="P6olf1xMX7x4DSoyxQ6s-3" value="+ Apellido: String" style="text;strokeColor=none;fillColor=none;align=left;verticalAlign=top;spacingLeft=4;spacingRight=4;overflow=hidden;rotatable=0;points=[[0,0.5],[1,0.5]];portConstraint=eastwest;" vertex="1" parent="P6olf1xMX7x4DSoyxQ6s-1">
          <mxGeometry y="52" width="160" height="26" as="geometry" />
        </mxCell>
        <mxCell id="P6olf1xMX7x4DSoyxQ6s-4" value="+ CodigoVendedor: String" style="text;strokeColor=none;fillColor=none;align=left;verticalAlign=top;spacingLeft=4;spacingRight=4;overflow=hidden;rotatable=0;points=[[0,0.5],[1,0.5]];portConstraint=eastwest;" vertex="1" parent="P6olf1xMX7x4DSoyxQ6s-1">
          <mxGeometry y="78" width="160" height="26" as="geometry" />
        </mxCell>
        <mxCell id="P6olf1xMX7x4DSoyxQ6s-18" value="+ Tienda: Tienda" style="text;strokeColor=none;fillColor=none;align=left;verticalAlign=top;spacingLeft=4;spacingRight=4;overflow=hidden;rotatable=0;points=[[0,0.5],[1,0.5]];portConstraint=eastwest;" vertex="1" parent="P6olf1xMX7x4DSoyxQ6s-1">
          <mxGeometry y="104" width="160" height="26" as="geometry" />
        </mxCell>
        <mxCell id="P6olf1xMX7x4DSoyxQ6s-5" value="Cotizacion" style="swimlane;fontStyle=0;childLayout=stackLayout;horizontal=1;startSize=26;fillColor=none;horizontalStack=0;resizeParent=1;resizeParentMax=0;resizeLast=0;collapsible=1;marginBottom=0;" vertex="1" parent="1">
          <mxGeometry x="670" y="40" width="170" height="182" as="geometry">
            <mxRectangle x="480" y="40" width="100" height="30" as="alternateBounds" />
          </mxGeometry>
        </mxCell>
        <mxCell id="P6olf1xMX7x4DSoyxQ6s-6" value="+ Identificacion: Int&#xa;" style="text;strokeColor=none;fillColor=none;align=left;verticalAlign=top;spacingLeft=4;spacingRight=4;overflow=hidden;rotatable=0;points=[[0,0.5],[1,0.5]];portConstraint=eastwest;" vertex="1" parent="P6olf1xMX7x4DSoyxQ6s-5">
          <mxGeometry y="26" width="170" height="26" as="geometry" />
        </mxCell>
        <mxCell id="P6olf1xMX7x4DSoyxQ6s-7" value="+ FechaCotizacion: Datetime" style="text;strokeColor=none;fillColor=none;align=left;verticalAlign=top;spacingLeft=4;spacingRight=4;overflow=hidden;rotatable=0;points=[[0,0.5],[1,0.5]];portConstraint=eastwest;" vertex="1" parent="P6olf1xMX7x4DSoyxQ6s-5">
          <mxGeometry y="52" width="170" height="26" as="geometry" />
        </mxCell>
        <mxCell id="P6olf1xMX7x4DSoyxQ6s-8" value="+ CodigoVendedor: String" style="text;strokeColor=none;fillColor=none;align=left;verticalAlign=top;spacingLeft=4;spacingRight=4;overflow=hidden;rotatable=0;points=[[0,0.5],[1,0.5]];portConstraint=eastwest;" vertex="1" parent="P6olf1xMX7x4DSoyxQ6s-5">
          <mxGeometry y="78" width="170" height="26" as="geometry" />
        </mxCell>
        <mxCell id="P6olf1xMX7x4DSoyxQ6s-11" value="+ Prenda: Prenda" style="text;strokeColor=none;fillColor=none;align=left;verticalAlign=top;spacingLeft=4;spacingRight=4;overflow=hidden;rotatable=0;points=[[0,0.5],[1,0.5]];portConstraint=eastwest;" vertex="1" parent="P6olf1xMX7x4DSoyxQ6s-5">
          <mxGeometry y="104" width="170" height="26" as="geometry" />
        </mxCell>
        <mxCell id="P6olf1xMX7x4DSoyxQ6s-12" value="CantidadCotizada: Int" style="text;strokeColor=none;fillColor=none;align=left;verticalAlign=top;spacingLeft=4;spacingRight=4;overflow=hidden;rotatable=0;points=[[0,0.5],[1,0.5]];portConstraint=eastwest;" vertex="1" parent="P6olf1xMX7x4DSoyxQ6s-5">
          <mxGeometry y="130" width="170" height="26" as="geometry" />
        </mxCell>
        <mxCell id="P6olf1xMX7x4DSoyxQ6s-13" value="Cotizacion: float" style="text;strokeColor=none;fillColor=none;align=left;verticalAlign=top;spacingLeft=4;spacingRight=4;overflow=hidden;rotatable=0;points=[[0,0.5],[1,0.5]];portConstraint=eastwest;" vertex="1" parent="P6olf1xMX7x4DSoyxQ6s-5">
          <mxGeometry y="156" width="170" height="26" as="geometry" />
        </mxCell>
        <mxCell id="P6olf1xMX7x4DSoyxQ6s-14" value="Tienda" style="swimlane;fontStyle=0;childLayout=stackLayout;horizontal=1;startSize=26;fillColor=none;horizontalStack=0;resizeParent=1;resizeParentMax=0;resizeLast=0;collapsible=1;marginBottom=0;" vertex="1" parent="1">
          <mxGeometry x="40" y="222" width="160" height="104" as="geometry" />
        </mxCell>
        <mxCell id="P6olf1xMX7x4DSoyxQ6s-15" value="+ Nombre: String" style="text;strokeColor=none;fillColor=none;align=left;verticalAlign=top;spacingLeft=4;spacingRight=4;overflow=hidden;rotatable=0;points=[[0,0.5],[1,0.5]];portConstraint=eastwest;" vertex="1" parent="P6olf1xMX7x4DSoyxQ6s-14">
          <mxGeometry y="26" width="160" height="26" as="geometry" />
        </mxCell>
        <mxCell id="P6olf1xMX7x4DSoyxQ6s-16" value="+ Direccion: String" style="text;strokeColor=none;fillColor=none;align=left;verticalAlign=top;spacingLeft=4;spacingRight=4;overflow=hidden;rotatable=0;points=[[0,0.5],[1,0.5]];portConstraint=eastwest;" vertex="1" parent="P6olf1xMX7x4DSoyxQ6s-14">
          <mxGeometry y="52" width="160" height="26" as="geometry" />
        </mxCell>
        <mxCell id="P6olf1xMX7x4DSoyxQ6s-17" value="+ Prendas: List&lt;Prendas&gt;" style="text;strokeColor=none;fillColor=none;align=left;verticalAlign=top;spacingLeft=4;spacingRight=4;overflow=hidden;rotatable=0;points=[[0,0.5],[1,0.5]];portConstraint=eastwest;" vertex="1" parent="P6olf1xMX7x4DSoyxQ6s-14">
          <mxGeometry y="78" width="160" height="26" as="geometry" />
        </mxCell>
        <mxCell id="P6olf1xMX7x4DSoyxQ6s-20" style="edgeStyle=orthogonalEdgeStyle;rounded=0;orthogonalLoop=1;jettySize=auto;html=1;entryX=0;entryY=0.125;entryDx=0;entryDy=0;entryPerimeter=0;" edge="1" parent="1" source="P6olf1xMX7x4DSoyxQ6s-18" target="P6olf1xMX7x4DSoyxQ6s-14">
          <mxGeometry relative="1" as="geometry" />
        </mxCell>
        <mxCell id="P6olf1xMX7x4DSoyxQ6s-21" value="Prenda" style="swimlane;fontStyle=0;childLayout=stackLayout;horizontal=1;startSize=26;fillColor=none;horizontalStack=0;resizeParent=1;resizeParentMax=0;resizeLast=0;collapsible=1;marginBottom=0;" vertex="1" parent="1">
          <mxGeometry x="355" y="330" width="140" height="104" as="geometry" />
        </mxCell>
        <mxCell id="P6olf1xMX7x4DSoyxQ6s-22" value="+ Calidad: Calidad&#xa;" style="text;strokeColor=none;fillColor=none;align=left;verticalAlign=top;spacingLeft=4;spacingRight=4;overflow=hidden;rotatable=0;points=[[0,0.5],[1,0.5]];portConstraint=eastwest;" vertex="1" parent="P6olf1xMX7x4DSoyxQ6s-21">
          <mxGeometry y="26" width="140" height="26" as="geometry" />
        </mxCell>
        <mxCell id="P6olf1xMX7x4DSoyxQ6s-23" value="+ PrecioUnitario: float" style="text;strokeColor=none;fillColor=none;align=left;verticalAlign=top;spacingLeft=4;spacingRight=4;overflow=hidden;rotatable=0;points=[[0,0.5],[1,0.5]];portConstraint=eastwest;" vertex="1" parent="P6olf1xMX7x4DSoyxQ6s-21">
          <mxGeometry y="52" width="140" height="26" as="geometry" />
        </mxCell>
        <mxCell id="P6olf1xMX7x4DSoyxQ6s-24" value="+ CantidadStock: int" style="text;strokeColor=none;fillColor=none;align=left;verticalAlign=top;spacingLeft=4;spacingRight=4;overflow=hidden;rotatable=0;points=[[0,0.5],[1,0.5]];portConstraint=eastwest;" vertex="1" parent="P6olf1xMX7x4DSoyxQ6s-21">
          <mxGeometry y="78" width="140" height="26" as="geometry" />
        </mxCell>
        <mxCell id="P6olf1xMX7x4DSoyxQ6s-26" value="&lt;&lt;enumeration&gt;&gt;&#xa;Calidad" style="swimlane;fontStyle=0;childLayout=stackLayout;horizontal=1;startSize=36;fillColor=none;horizontalStack=0;resizeParent=1;resizeParentMax=0;resizeLast=0;collapsible=1;marginBottom=0;" vertex="1" parent="1">
          <mxGeometry x="670" y="274" width="140" height="88" as="geometry" />
        </mxCell>
        <mxCell id="P6olf1xMX7x4DSoyxQ6s-27" value="- Standard" style="text;strokeColor=none;fillColor=none;align=left;verticalAlign=top;spacingLeft=4;spacingRight=4;overflow=hidden;rotatable=0;points=[[0,0.5],[1,0.5]];portConstraint=eastwest;" vertex="1" parent="P6olf1xMX7x4DSoyxQ6s-26">
          <mxGeometry y="36" width="140" height="26" as="geometry" />
        </mxCell>
        <mxCell id="P6olf1xMX7x4DSoyxQ6s-28" value="- Premium" style="text;strokeColor=none;fillColor=none;align=left;verticalAlign=top;spacingLeft=4;spacingRight=4;overflow=hidden;rotatable=0;points=[[0,0.5],[1,0.5]];portConstraint=eastwest;" vertex="1" parent="P6olf1xMX7x4DSoyxQ6s-26">
          <mxGeometry y="62" width="140" height="26" as="geometry" />
        </mxCell>
        <mxCell id="P6olf1xMX7x4DSoyxQ6s-33" style="edgeStyle=orthogonalEdgeStyle;rounded=0;orthogonalLoop=1;jettySize=auto;html=1;entryX=0;entryY=0.25;entryDx=0;entryDy=0;endArrow=none;endFill=0;" edge="1" parent="1" source="P6olf1xMX7x4DSoyxQ6s-22" target="P6olf1xMX7x4DSoyxQ6s-26">
          <mxGeometry relative="1" as="geometry" />
        </mxCell>
        <mxCell id="P6olf1xMX7x4DSoyxQ6s-34" style="edgeStyle=orthogonalEdgeStyle;rounded=0;orthogonalLoop=1;jettySize=auto;html=1;entryX=0.5;entryY=0;entryDx=0;entryDy=0;endArrow=none;endFill=0;" edge="1" parent="1" source="P6olf1xMX7x4DSoyxQ6s-11" target="P6olf1xMX7x4DSoyxQ6s-21">
          <mxGeometry relative="1" as="geometry" />
        </mxCell>
      </root>
    </mxGraphModel>
  </diagram>
</mxfile>
